<?xml version="1.0" standalone="no"?>
<!DOCTYPE svg PUBLIC "-//W3C//DTD SVG 20010904//EN"
 "http://www.w3.org/TR/2001/REC-SVG-20010904/DTD/svg10.dtd">
<svg version="1.0" xmlns="http://www.w3.org/2000/svg"
 width="16.000000pt" height="16.000000pt" viewBox="0 0 16.000000 16.000000"
 preserveAspectRatio="xMidYMid meet">
<metadata>
Created by potrace 1.11, written by Peter Selinger 2001-2013
</metadata>
<g transform="translate(0.000000,16.000000) scale(0.001469,-0.001469)"
fill="#000000" stroke="none">
<path d="M7775 7133 c-52 -14 -121 -74 -141 -122 -17 -40 -18 -128 -3 -168 5
-15 22 -40 36 -55 25 -27 26 -29 13 -70 -8 -24 -19 -52 -25 -63 -7 -11 -18
-40 -25 -65 -8 -25 -17 -50 -21 -55 -4 -6 -15 -33 -24 -60 -9 -28 -22 -61 -29
-75 -7 -14 -19 -45 -26 -70 -8 -25 -20 -54 -27 -65 -7 -11 -13 -27 -13 -35 0
-9 -11 -40 -25 -68 -14 -29 -25 -56 -25 -61 0 -5 -11 -36 -24 -68 -13 -32 -36
-89 -51 -128 -14 -38 -32 -83 -40 -100 -7 -16 -18 -46 -25 -65 -16 -45 -59
-156 -76 -197 -8 -17 -14 -36 -14 -42 0 -11 -3 -18 -31 -72 -6 -12 -19 -48
-30 -82 -10 -33 -23 -65 -27 -71 -5 -6 -15 -31 -22 -56 -8 -25 -20 -54 -27
-65 -7 -11 -13 -28 -13 -37 0 -18 -3 -25 -33 -86 -9 -19 -17 -39 -17 -46 0
-12 -19 -59 -41 -98 -5 -10 -9 -23 -9 -30 0 -13 -33 -98 -71 -184 -10 -23 -21
-55 -25 -70 -12 -49 -21 -54 -101 -54 -82 0 -111 -13 -165 -73 l-27 -30 -88
12 c-48 7 -122 19 -163 26 -41 8 -115 19 -165 25 -49 6 -107 16 -128 21 -20 5
-74 15 -120 20 -120 15 -169 23 -417 64 -47 8 -114 18 -150 24 -36 6 -108 17
-160 25 -52 8 -126 20 -165 26 -38 5 -128 19 -198 31 -71 11 -159 24 -195 28
-71 9 -300 45 -392 62 -87 16 -168 28 -302 44 -39 5 -47 10 -53 32 -9 36 -49
86 -93 117 -33 22 -49 26 -110 26 -62 0 -78 -4 -113 -27 -22 -15 -54 -46 -70
-69 -25 -37 -29 -52 -29 -111 0 -64 2 -71 41 -122 33 -43 39 -58 31 -70 -11
-17 -29 -51 -186 -356 -54 -104 -133 -257 -176 -340 -43 -82 -99 -192 -125
-243 -26 -51 -53 -96 -60 -98 -8 -3 -24 0 -36 6 -30 17 -138 17 -177 1 -38
-16 -42 -14 -139 79 -43 41 -132 125 -198 185 -65 61 -140 130 -166 155 -26
25 -66 63 -90 85 -24 22 -78 71 -119 110 -42 38 -131 122 -199 185 -68 63
-144 135 -170 158 -25 24 -76 71 -112 103 l-65 60 4 84 c4 79 3 87 -23 128
-16 24 -47 56 -70 70 -35 23 -53 27 -114 27 -60 0 -78 -4 -110 -26 -89 -59
-127 -178 -83 -263 l21 -39 -92 -65 c-51 -35 -150 -104 -222 -153 -71 -48
-150 -102 -173 -118 -24 -17 -54 -38 -66 -46 -80 -55 -185 -131 -194 -143 -8
-9 -7 -25 3 -57 8 -25 19 -65 26 -90 6 -25 17 -61 24 -80 8 -19 19 -60 26 -90
7 -30 19 -62 26 -71 7 -8 13 -22 13 -30 0 -8 9 -39 21 -69 11 -30 27 -75 35
-100 8 -25 21 -58 29 -75 7 -16 17 -41 23 -55 24 -58 58 -133 123 -267 38 -78
69 -146 69 -152 0 -5 6 -14 13 -18 7 -4 19 -24 27 -43 7 -19 19 -42 25 -50 6
-8 29 -46 50 -85 21 -38 48 -83 60 -100 12 -16 25 -37 29 -45 3 -8 20 -35 36
-60 16 -25 37 -58 46 -75 9 -16 23 -34 30 -38 8 -4 14 -12 14 -18 0 -9 68
-105 120 -169 11 -14 37 -47 57 -75 21 -27 42 -55 48 -61 5 -6 24 -28 40 -48
17 -20 45 -54 63 -74 19 -20 44 -53 58 -72 32 -47 363 -373 491 -484 124 -107
259 -213 418 -327 108 -77 310 -209 320 -209 2 0 23 -13 47 -29 87 -59 565
-301 594 -301 3 0 21 -7 40 -15 19 -8 51 -22 72 -31 20 -8 46 -19 57 -24 11
-5 45 -17 75 -26 30 -10 57 -20 60 -24 3 -3 30 -12 60 -19 30 -7 69 -19 85
-26 17 -7 59 -21 95 -30 36 -10 70 -21 75 -24 13 -8 110 -31 158 -38 20 -3 40
-9 43 -14 3 -5 18 -9 33 -9 15 0 50 -6 77 -14 58 -16 131 -31 234 -47 347 -55
474 -64 895 -64 427 0 533 8 905 69 52 8 127 23 165 31 39 9 84 18 100 21 17
3 39 9 50 14 11 4 56 16 100 25 44 10 89 21 100 26 11 4 47 15 80 24 33 10 74
23 90 30 17 7 53 18 80 25 28 7 55 16 60 20 6 4 35 15 65 24 30 9 64 21 75 26
11 5 37 16 58 24 20 9 52 23 71 31 19 8 37 15 40 15 14 0 424 198 436 210 3 3
28 17 55 31 80 42 120 64 125 69 3 3 39 26 80 50 41 24 77 47 80 50 3 4 21 15
40 26 19 10 37 22 40 25 4 5 82 60 153 109 32 21 136 100 173 130 18 14 46 36
65 50 18 14 39 31 46 38 7 8 46 41 86 74 123 102 414 395 518 522 13 17 35 41
49 55 14 14 39 44 55 66 17 22 35 45 40 51 27 30 195 255 220 296 14 22 84
127 106 160 11 15 19 30 19 34 0 4 11 22 25 40 14 18 25 35 25 37 0 3 20 38
45 79 24 40 51 89 60 108 8 19 19 42 25 50 11 17 166 331 184 375 7 17 19 44
26 60 7 17 18 44 25 60 8 17 21 51 29 77 9 26 20 56 25 65 13 26 31 87 31 105
0 9 7 21 15 28 8 7 15 22 15 33 0 23 16 77 35 122 7 17 16 44 20 60 20 97 26
120 35 129 6 6 10 20 10 33 0 25 16 99 33 153 10 34 17 68 36 195 5 33 14 73
20 88 6 16 11 49 11 75 0 26 5 65 11 87 15 62 30 234 36 412 4 155 4 163 -16
180 -16 13 -21 29 -21 63 0 38 -6 52 -32 81 -178 192 -266 285 -335 358 l-83
86 0 65 c0 54 -5 73 -30 112 -84 134 -274 138 -361 7 -25 -38 -29 -54 -29
-114 0 -59 4 -77 25 -107 14 -20 25 -40 25 -44 0 -3 -34 -41 -76 -84 -42 -43
-82 -87 -90 -99 -19 -26 -36 -27 -58 -2 -25 28 -98 45 -154 36 -73 -11 -78 -9
-130 42 -26 26 -92 89 -147 138 -118 108 -110 100 -215 200 -47 44 -127 118
-179 165 -51 47 -114 105 -140 130 -26 25 -92 86 -146 135 -54 50 -135 124
-179 166 -45 41 -108 100 -141 130 -93 85 -104 99 -111 138 -13 77 -32 107
-96 148 -40 25 -121 38 -163 26z"/>
<path d="M242 5200 c0 -14 2 -19 5 -12 2 6 2 18 0 25 -3 6 -5 1 -5 -13z"/>
</g>
</svg>
